<?xml version="1.0" encoding="UTF-8" standalone="no"?>
<!-- Created with Inkscape (http://www.inkscape.org/) -->

<svg
   version="1.1"
   id="svg736"
   width="1022.1699"
   height="1021.9144"
   viewBox="0 0 1022.1699 1021.9144"
   sodipodi:docname="background.svg"
   inkscape:version="1.2.1 (9c6d41e4, 2022-07-14)"
   xmlns:inkscape="http://www.inkscape.org/namespaces/inkscape"
   xmlns:sodipodi="http://sodipodi.sourceforge.net/DTD/sodipodi-0.dtd"
   xmlns="http://www.w3.org/2000/svg"
   xmlns:svg="http://www.w3.org/2000/svg">
  <defs
     id="defs740" />
  <sodipodi:namedview
     id="namedview738"
     pagecolor="#ffffff"
     bordercolor="#666666"
     borderopacity="1.0"
     inkscape:showpageshadow="2"
     inkscape:pageopacity="0.0"
     inkscape:pagecheckerboard="0"
     inkscape:deskcolor="#d1d1d1"
     showgrid="false"
     inkscape:zoom="0.23046875"
     inkscape:cx="529.35593"
     inkscape:cy="518.50847"
     inkscape:window-width="1328"
     inkscape:window-height="683"
     inkscape:window-x="0"
     inkscape:window-y="25"
     inkscape:window-maximized="0"
     inkscape:current-layer="g742" />
  <g
     inkscape:groupmode="layer"
     inkscape:label="Image"
     id="g742"
     transform="translate(-1.1219581,-9.3887186)">
    <path
       style="fill:#000000"
       d="m 492.00003,1031.0886 c -2.475,-0.2164 -11.25,-0.8633 -19.5,-1.4377 -18.1707,-1.265 -44.8485,-4.9863 -64.6162,-9.0133 C 289.28713,996.47759 180.34153,926.65809 105.98923,827.16349 39.873349,738.69059 4.4231688,638.76849 1.3348288,532.17796 -1.0631912,449.41287 16.841709,366.77042 52.902329,294.16115 c 26.4305,-53.21861 53.325401,-91.21219 93.894901,-132.64266 19.6538,-20.07083 36.7713,-35.27858 56.2614,-49.98454 58.1058,-43.842815 121.7245,-73.279465 192.9414,-89.274775 108.8089,-24.4385001 221.0482,-13.9457001 325,30.38295 51.9534,22.15476 105.0159,57.924785 148.3643,100.014165 26.3641,25.59827 54.7467,60.48629 73.4784,90.31972 43.4096,69.13744 69.27827,143.0541 77.76397,222.20195 2.1516,20.06829 3.3532,60.37563 2.2944,76.95908 -5.3947,84.48725 -29.29827,163.16035 -71.41347,235.04095 -32.2357,55.0185 -74.2478,104.1466 -121.2504,141.7877 -80.5279,64.489 -173.7737,102.27541 -273.1546,110.69151 -13.1876,1.1168 -57.5274,2.092 -65.0826,1.4314 z m 70,-4.8557 c 81.2883,-8.0304 156.1169,-34.46161 224.5,-79.29851 51.2894,-33.629 91.8126,-71.5393 128.0105,-119.7564 57.4694,-76.5516 92.17987,-163.1285 102.91717,-256.7022 1.8138,-15.80677 1.9313,-19.13774 0.6472,-18.3441 -1.3559,0.83799 -19.73177,-1.30277 -25.72877,-2.99738 -6.3067,-1.7821 -10.0984,-1.7999 -13.2336,-0.0622 -1.8572,1.02942 -7.892,1.23643 -27.1709,0.93207 -13.8231,-0.21823 -25.0259,10e-4 -25.3317,0.49588 -0.3016,0.48792 0.5628,1.93098 1.9209,3.2068 4.7535,4.46573 3.7904,4.78688 -15.2808,5.095 -9.7625,0.15773 -21.125,0.21846 -25.25,0.13497 -9.924,-0.20087 -183.1739,-0.16886 -319.25,0.059 -59.8125,0.10015 -108.75,-0.16655 -108.75,-0.59266 0,-2.14949 8.9899,-2.50489 61.1056,-2.41576 l 56.5351,0.0967 6.4425,-4.06883 c 3.5434,-2.23786 13.4118,-7.89217 21.9297,-12.56514 29.7076,-16.29778 28.8562,-15.74169 52.9995,-34.61536 7.9502,-6.2149 27.0599,-23.97735 42.0234,-39.06067 4.1448,-4.17791 12.938,-12.60299 19.5405,-18.72241 6.6025,-6.11942 13.5614,-13.42031 15.4641,-16.22421 1.9028,-2.8039 3.7971,-5.1096 4.2096,-5.12378 1.2421,-0.0427 0.7833,3.34623 -0.722,5.33355 -1.0936,1.44367 -1.1508,2.27183 -0.2561,3.70452 0.6338,1.01485 0.8074,2.19012 0.3858,2.6117 -0.4215,0.42159 -1.1608,0.12853 -1.6427,-0.65123 -0.6741,-1.09074 -2.4359,0.26687 -7.6383,5.88594 -3.7191,4.01702 -12.6379,12.37865 -19.8194,18.5814 -7.1815,6.20275 -17.7823,15.95064 -23.5573,21.66199 -5.775,5.71134 -14.0592,13.30073 -18.4093,16.8653 -4.3502,3.56457 -10.6502,8.75256 -14,11.52887 -13.973,11.58051 -18.5667,14.52375 -45.5907,29.21066 -8.525,4.63314 -18.2,10.07035 -21.5,12.0827 l -6,3.65881 19.9927,0.27195 c 13.2694,0.1805 20.11,-0.0801 20.3416,-0.77486 0.3984,-1.19516 4.7986,-3.20085 14.1657,-6.45692 9.2258,-3.20697 22.9351,-10.29971 34,-17.59044 5.225,-3.44279 12.4051,-8.04171 15.9557,-10.21982 7.6528,-4.69451 30.4535,-22.12495 37.5443,-28.70146 2.75,-2.55054 9.275,-8.17637 14.5,-12.50184 13.3476,-11.04966 17.7893,-15.40097 20.6435,-20.22324 2.8477,-4.81119 2.5654,-5.85258 -3.3663,-12.41827 -1.9567,-2.16588 -3.3261,-4.16956 -3.043,-4.45263 0.8764,-0.87643 6.8218,4.69609 9.4468,8.85432 l 2.4952,3.9526 1.7895,-2.8697 c 0.9842,-1.57833 3.4642,-4.44469 5.5109,-6.36969 5.3915,-5.07071 14.0853,-16.86476 16.0487,-21.77174 0.9305,-2.32554 2.3123,-4.22826 3.0706,-4.22826 1.0446,0 0.791,1.32932 -1.0462,5.4834 -3.291,7.44154 -10.0927,16.70714 -17.9512,24.45385 l -6.5302,6.43725 1.9353,3.13138 c 3.348,5.41711 1.5634,8.76637 -10.766,20.20544 -11.4688,10.64065 -38.3872,31.28872 -40.7904,31.28872 -2.1387,0 -1.7567,-1.76402 0.6624,-3.05866 3.8017,-2.0346 28.2538,-21.12941 34.3904,-26.85569 3.3,-3.07934 7.7154,-7.0691 9.812,-8.86613 2.0966,-1.79703 4.0046,-4.26758 4.2401,-5.49012 0.2354,-1.22254 0.8857,-2.37534 1.445,-2.56179 0.5594,-0.18645 0.081,-1.65284 -1.062,-3.25866 l -2.0789,-2.91966 -3.1781,4.72048 c -1.7595,2.61339 -8.9809,9.5346 -16.1781,15.50552 -7.15,5.93178 -16.15,13.49653 -20,16.81055 -10.142,8.73003 -30.9459,24.57319 -36.3519,27.68366 -2.5565,1.47091 -7.8755,4.82802 -11.8201,7.46025 -10.551,7.04073 -28.7274,16.73944 -36.2522,19.34374 -3.6167,1.25174 -8.5721,3.18865 -11.0119,4.30425 l -4.4361,2.02837 32.8354,-0.5809 32.8354,-0.58089 7.7786,-5.23633 c 4.2783,-2.87999 9.2736,-6.34817 11.1008,-7.70708 6.2335,-4.63617 12.823,-8.02462 12.8076,-6.58593 -0.01,0.73976 -2.1455,2.59562 -4.75,4.12414 -2.6046,1.52851 -8.9056,5.68736 -14.0023,9.24188 l -9.2667,6.46277 32.2667,-0.62825 32.2667,-0.62824 4.1217,-3.11364 c 10.9611,-8.28035 32.3783,-25.93562 32.3783,-26.69106 0,-1.065 3.9899,-3.26598 4.6763,-2.57961 1.0394,1.03942 -7.9867,9.52159 -21.9816,20.65703 -12.1221,9.64531 -14.1369,11.62059 -12.493,12.2477 1.6533,0.63069 40.0933,0.93782 97.7983,0.78137 7.425,-0.0201 16.296,0.24075 19.7133,0.57973 l 6.2133,0.61633 6.2867,-5.60192 c 3.4577,-3.08105 6.4509,-5.11406 6.6516,-4.5178 0.2007,0.59627 -1.8243,3.04631 -4.5,5.44455 l -4.8649,4.36042 17.75,0.0448 c 9.7625,0.0246 17.75,-0.17413 17.75,-0.44173 0,-1.46125 -8.0189,-7.50214 -11.2394,-8.46704 -2.0683,-0.61967 -3.7606,-1.5241 -3.7606,-2.00983 0,-0.48572 -1.1503,-2.2501 -2.5561,-3.92084 -2.0635,-2.45237 -2.3526,-3.41794 -1.5,-5.01098 1.6697,-3.11987 1.2945,-4.40036 -1.1056,-3.77273 -3.0749,0.8041 -5.6201,-0.87407 -7.2531,-4.78227 -0.7763,-1.85797 -3.8249,-6.00424 -6.7746,-9.21394 -5.7388,-6.2445 -9.0679,-12.41674 -7.0584,-13.08656 0.6311,-0.21036 2.2796,-1.27307 3.6634,-2.36159 2.0369,-1.6022 2.401,-2.55454 1.9118,-5.00052 -0.439,-2.19516 -0.025,-3.80467 1.5133,-5.8856 l 2.1176,-2.86419 -3.4792,-2.15024 c -1.9135,-1.18263 -3.4791,-2.55496 -3.4791,-3.04963 0,-0.49466 -1.1066,-1.17711 -2.459,-1.51655 -3.6125,-0.90669 -5.1047,-3.03688 -3.49,-4.98243 1.0953,-1.31975 0.8675,-1.95877 -1.4717,-4.12778 -1.5222,-1.41146 -4.3125,-4.9813 -6.2007,-7.93298 -1.8881,-2.95168 -5.4458,-7.83782 -7.9058,-10.85809 -4.8618,-5.96901 -5.1287,-6.51966 -3.1599,-6.51966 1.8199,0 5.6174,4.25334 11.1602,12.5 2.5878,3.85 6.5774,8.94142 8.8659,11.31428 3.8125,3.953 4.0157,4.42185 2.4265,5.59887 -1.9401,1.4369 -1.3424,2.58685 1.3444,2.58685 0.9772,0 2.3647,0.83299 3.0834,1.85109 0.7187,1.01809 2.7692,2.60465 4.5567,3.52568 3.7638,1.93935 4.1726,4.47829 1.16,7.20468 -1.6725,1.51354 -1.9715,2.63268 -1.4967,5.60159 0.5364,3.35467 0.2675,3.95862 -2.8061,6.30299 -4.442,3.38809 -3.9367,5.15045 3.7012,12.90785 3.2975,3.34913 6.5967,7.52812 7.3314,9.28664 1.1212,2.68339 1.9407,3.24731 5.0981,3.50839 3.6706,0.30352 3.7621,0.40837 3.7621,4.31109 0,5.26114 2.6958,9.05068 8.157,11.46644 3.3763,1.49349 5.025,1.72474 6.9847,0.97967 1.4414,-0.54801 13.1437,-0.92708 26.7117,-0.86525 16.3183,0.0743 25.6441,-0.29004 28.7658,-1.12397 3.9157,-1.04604 5.3509,-0.98471 9.4225,0.40264 4.8293,1.64549 27.05937,4.37272 27.99727,3.43476 0.9913,-0.99128 0.6154,-54.60299 -0.4858,-69.29429 -4.9027,-65.40543 -21.83927,-126.54481 -52.07897,-188 -20.6621,-41.99112 -46.7497,-80.205 -79.5313,-116.5 C 841.15553,124.42964 779.61243,80.576285 716.96173,54.199245 588.99273,0.32205492 446.95743,-1.5968351 320.13803,48.838175 223.09013,87.433325 138.29563,158.22139 82.002529,247.63813 c -42.35889,67.2834 -66.41536,137.33471 -75.5643802,220.03983 -2.22186,20.08517 -2.99604,64.29377 -1.46504,83.6598 l 1.27087,16.07573 12.1280102,0.6265 c 6.67041,0.3445 21.70505,0.9205 33.41034,1.28 12.3923,0.3805 21.5409,1.0719 21.9013,1.655 0.6161,0.997 -28.78406,0.4954 -55.0793,-0.9396 l -11.8956802,-0.6492 0.69431,6.3959 c 9.7142002,89.4866 45.6430702,177.0472 104.2384712,254.0351 14.7021,19.3169 28.1288,34.3571 49.0038,54.8928 53.5314,52.6613 117.7704,92.6022 187.1501,116.36151 44.5353,15.2513 85.7415,23.1324 141.2047,27.0068 10.9442,0.7645 58.8359,-0.4462 73,-1.8454 z m -397.25,-188.28761 c -3.6789,-0.8703 -1.5219,-2.2673 3.5,-2.2668 2.8875,4e-4 33.9892,-0.4879 69.115,-1.0849 45.9112,-0.7804 64.17,-0.7806 64.95,-6e-4 0.78,0.78 -1.3106,1.085 -7.4366,1.085 -14.7651,0 -120.1896,1.984 -124.3784,2.3407 -2.2,0.1874 -4.7875,0.1544 -5.75,-0.073 z m 664.1666,-11.6807 c -0.2291,-0.2273 -18.8666,-0.7097 -41.4166,-1.0719 -27.966,-0.4493 -41.1224,-1.003 -41.385,-1.7417 -0.2749,-0.7731 12.1691,-0.8932 43.5,-0.4195 54.8234,0.8288 79.385,1.6928 79.385,2.7928 0,0.8315 -39.2543,1.2628 -40.0834,0.4403 z m -401.1075,-17.1109 c -0.2884,-0.2883 -14.7552,-0.5431 -32.1486,-0.5662 -17.3934,-0.023 -31.8441,-0.3975 -32.1125,-0.8319 -0.932,-1.508 26.0994,-2.0735 52.952,-1.1077 14.85,0.5341 34.65,0.9912 44,1.0159 9.35,0.025 17.675,0.481 18.5,1.0142 0.9897,0.6396 -7.3735,0.9746 -24.5834,0.9847 -14.3458,0.01 -26.3192,-0.2206 -26.6075,-0.509 z m 260.6909,-2.5634 c -8.25,-0.3811 -36.0375,-1.0317 -61.75,-1.4458 -25.7125,-0.4142 -46.75,-1.1386 -46.75,-1.6098 0,-1.8766 106.674,-0.3775 123.75,1.739 4.3031,0.5334 6.1497,2.571 2,2.2068 -1.2375,-0.1086 -9,-0.5092 -17.25,-0.8902 z m -524.75,-19.7013 c -4.8125,-0.1589 -8.75,-0.6689 -8.75,-1.1333 0,-0.4645 28.3924,-0.9118 63.0943,-0.9941 41.3611,-0.098 62.9757,0.1922 62.75,0.8426 -0.3255,0.9378 -95.8587,1.9861 -117.0943,1.2848 z m 687.25,-8.2562 c -5.775,-0.3904 -12.8625,-0.7649 -15.75,-0.8323 -3.2264,-0.075 -5.25,-0.5669 -5.25,-1.2753 0,-0.8416 3.0371,-0.9729 11.25,-0.4862 6.1875,0.3666 18.3549,0.9565 27.0387,1.3109 8.6838,0.3545 16.0229,1.0233 16.309,1.4863 0.5944,0.9616 -18.0307,0.8489 -33.5977,-0.2034 z m -427.5,-8.9714 c -7.15,-0.4545 -24.25,-1.5365 -38,-2.4046 -13.75,-0.8681 -31.4125,-1.5784 -39.25,-1.5786 -10.002,-2e-4 -14.25,-0.3402 -14.25,-1.1405 0,-1.4936 38.4634,-0.5888 71.5,1.6819 13.2,0.9073 33.225,1.7191 44.5,1.804 11.275,0.085 20.6141,0.5441 20.7535,1.0205 0.3533,1.2068 -29.558,1.6148 -45.2535,0.6173 z m 262,-4.1915 c -14.3,-0.4615 -38.15,-1.0262 -53,-1.2548 -14.85,-0.2285 -28.3275,-0.4429 -29.95,-0.4763 -2.1842,-0.045 -2.6581,-0.3527 -1.8257,-1.1852 1.1921,-1.192 33.5356,-0.8228 90.7757,1.0364 15.95,0.5181 32.514,0.9748 36.809,1.015 4.9343,0.046 7.5815,0.4411 7.191,1.073 -0.6863,1.1103 -10.4049,1.0699 -50,-0.2081 z m -245.5,-22.7919 c 0,-0.65 14,-1 40,-1 26,0 40,0.35 40,1 0,0.65 -14,1 -40,1 -26,0 -40,-0.35 -40,-1 z m 388.9166,-2.3638 c -0.5994,-0.5233 -26.0703,-1.5286 -58.1268,-2.2943 -18.0227,-0.4304 -27.4945,-1.0108 -27.0933,-1.66 0.693,-1.1211 51.5469,-0.2604 77.3035,1.3084 8.525,0.5193 23.7125,0.9589 33.75,0.9769 11.4781,0.021 18.25,0.4038 18.25,1.0328 0,0.9266 -43.0391,1.5478 -44.0834,0.6362 z m -712.9166,-5.4722 c 0,-0.4597 28.4242,-1.1347 63.1649,-1.5 83.5696,-0.8785 109.8351,-0.8374 109.8351,0.1719 0,0.4597 -28.6875,1.1344 -63.75,1.4991 -84.2668,0.8767 -109.25,0.8376 -109.25,-0.171 z m 379.5,-8.2076 c 7.6036,-1.1806 68.2287,-2.2043 68.8723,-1.163 0.7519,1.2166 -24.7282,2.2366 -51.7813,2.073 -14.5764,-0.088 -20.3902,-0.3977 -17.091,-0.91 z m 179.5,-6.8311 c 0,-1.5049 5.6096,-2.0777 27,-2.757 19.5853,-0.622 35.9999,0.047 36.0001,1.467 0,0.3656 -12.2625,0.6647 -27.25,0.6647 -14.9876,0 -29.1626,0.3428 -31.5001,0.7618 -2.4113,0.4322 -4.25,0.3732 -4.25,-0.1365 z m -194,-1.945 c 0,-1.1213 8.8438,-1.9438 30.2149,-2.8101 17.3479,-0.7031 40.7851,0.9617 40.7851,2.8971 0,0.6149 -2.825,0.6514 -7.75,0.1002 -9.6529,-1.0805 -32.5404,-1.1175 -50,-0.081 -7.6972,0.457 -13.25,0.4124 -13.25,-0.1064 z m -71.9167,-10.591 c 1.0922,-1.0764 17.7374,-1.6884 18.3636,-0.6752 0.4652,0.7527 -2.3127,1.0859 -9.0546,1.0859 -5.3491,0 -9.5382,-0.1848 -9.309,-0.4107 z m 62.3322,-0.7259 c -0.3888,-0.6292 21.2273,-1.7131 41.5845,-2.0853 11.9695,-0.2189 34.8223,1.1253 35.4141,2.083 0.2172,0.3514 -16.9302,0.6389 -38.1052,0.6389 -21.1749,0 -38.677,-0.2865 -38.8934,-0.6366 z m -153.4155,-3.0579 c -6.325,-0.4999 -24.6625,-0.7293 -40.75,-0.5097 -28.9576,0.3953 -38.33,-0.3929 -19.5,-1.6398 22.8838,-1.5154 88.25,0.3463 88.25,2.5135 0,1.0178 -12.5865,0.8542 -28,-0.364 z m -228.000001,-0.6808 c 0,-1.4303 4.1374,-1.9293 21.410901,-2.5826 19.3102,-0.7302 91.5891,0.533 91.5891,1.6007 0,0.4505 -23.9625,0.732 -53.25,0.6255 -29.2875,-0.1065 -54.712501,0.1628 -56.500001,0.5985 -2.0822,0.5075 -3.25,0.4205 -3.25,-0.2421 z m 706.000001,-1.2883 c -9.075,-0.4683 -28.5953,-0.5727 -43.3783,-0.2319 -17.4434,0.4022 -26.6659,0.276 -26.2732,-0.3595 1.7037,-2.7566 99.1992,-1.9542 102.1015,0.8403 1.1032,1.0622 -8.4681,0.9888 -32.45,-0.2489 z m -294,-3.8566 c -9.625,-0.4049 -20.7625,-0.791 -24.75,-0.858 -4.0855,-0.069 -7.25,-0.5583 -7.25,-1.1218 0,-0.5583 2.7159,-1 6.1479,-1 h 6.1478 l -3.3978,-2.2674 c -2.6593,-1.7745 -3.8868,-3.7262 -5.6469,-8.9788 -1.2369,-3.6913 -2.3619,-8.2951 -2.5,-10.2307 -0.2581,-3.6184 -1.1417,-4.5535 -2.0546,-2.1745 -0.5294,1.3796 -16.1975,3.6514 -25.1826,3.6514 -2.7245,0 -4.7206,0.5334 -5.2141,1.3934 -0.7749,1.35 -13.6229,3.5732 -29.5497,5.1131 l -6.75,0.6527 v -5.5206 c 0,-3.3366 0.4945,-5.8271 1.25,-6.2953 0.6875,-0.4261 12.725,-0.8294 26.75,-0.8962 14.025,-0.067 30.675,-0.6292 37,-1.25 6.325,-0.6207 14.5375,-1.4271 18.25,-1.7921 4.468,-0.4391 6.75,-0.3085 6.75,0.3863 0,1.2599 -3.7356,2.1499 -12.7759,3.0438 -11.71,1.1579 -7.688,2.6435 8.1047,2.9937 l 14.8288,0.3288 -2.0788,-2.0788 c -1.1434,-1.1434 -2.0788,-2.5288 -2.0788,-3.0788 0,-0.55 -1.125,-1 -2.5,-1 -1.375,0 -2.5,-0.45 -2.5,-1 0,-0.55 1.35,-1 3,-1 2.3528,0 3,-0.44 3,-2.0399 0,-2.2766 3.1967,-8.9547 6.2881,-13.136 2.0668,-2.7955 6.3298,-4.8241 10.1375,-4.8241 1.883,0 2.0829,-0.4649 1.741,-4.05 -0.2745,-2.8783 0.1243,-4.614 1.3786,-6 2.433,-2.6884 4.1073,-2.4514 7.6405,1.0819 2.3922,2.3922 2.9373,3.6762 2.5837,6.0858 -0.3575,2.4356 -0.013,3.2195 1.7031,3.8718 3.2822,1.2479 8.0936,7.2654 11.1727,13.9737 2.6713,5.8197 2.9061,6.0368 6.5285,6.0368 2.0666,0 8.6105,0.6516 14.5419,1.448 27.3497,3.6723 36.4072,4.0027 54.7844,1.9988 2.2,-0.2399 7.1225,-0.1011 10.9389,0.3085 l 6.939,0.7447 0.087,4.75 0.087,4.75 -6.0263,-0.094 c -3.3146,-0.052 -10.7514,-0.6142 -16.5264,-1.25 -8.6765,-0.9553 -10.455,-1.4337 -10.2409,-2.755 0.2187,-1.3494 -1.8103,-1.7849 -13,-2.7904 -7.2925,-0.6554 -15.5407,-1.4508 -18.3293,-1.7676 l -5.0701,-0.5761 -1.7035,7.7525 c -1.1862,5.3983 -2.6328,8.9258 -4.7639,11.6165 l -3.0604,3.8641 h 3.084 c 1.6963,0 3.0841,0.45 3.0841,1 0,0.55 -2.3625,1.011 -5.25,1.0244 -2.8875,0.013 -7.05,0.4311 -9.25,0.928 -6.1198,1.3824 -27.0614,1.8451 -46.5,1.0274 z m 41,-2.9288 c 3.1112,-0.5536 -1.3636,-0.861 -14.5,-0.9961 -11.6555,-0.1199 -18.2269,-0.5277 -17,-1.0549 1.1,-0.4727 4.8125,-0.8911 8.25,-0.9297 6.74,-0.076 6.7884,-0.1282 5.6016,-6.0622 l -0.6484,-3.2419 -8.1016,0.5802 c -19.991,1.4318 -35.6016,1.8691 -35.6016,0.9973 0,-0.9769 27.1106,-3.3907 37.75,-3.3611 l 6.25,0.017 v -3.3641 c 0,-3.244 -0.1656,-3.3868 -4.6396,-4 -6.4412,-0.8829 -10.3604,-0.794 -10.3604,0.2349 0,1.4547 -10.8059,2.0567 -23.7506,1.3233 -13.9812,-0.7922 -13.7886,-0.9337 -10.5772,7.7724 2.1685,5.879 2.8922,6.7511 7.7609,9.3531 3.4715,1.8553 6.2626,2.2562 19.0669,2.7386 23.1259,0.8713 35.5754,0.8691 40.5,-0.01 z m 11.0343,-3.0694 c 2.6985,-1.4442 6.6515,-8.723 7.4575,-13.7316 l 0.684,-4.25 h -3.3879 c -1.8634,0 -3.9279,0.54 -4.5879,1.2 -0.9334,0.9333 -1.4667,0.9333 -2.4,0 -0.6928,-0.6928 -4.0113,-1.2 -7.8508,-1.2 -3.6579,0 -8.0884,-0.5012 -9.8456,-1.1137 -2.6804,-0.9344 -3.5095,-0.829 -5.1492,0.6549 -1.0854,0.9823 -1.9544,3.0613 -1.9544,4.6756 v 2.9068 l 15.9983,-0.1987 c 8.799,-0.1093 16,0.2004 16.0021,0.6882 0,0.4878 -7.087,1.01 -15.7536,1.1605 l -15.7575,0.2736 0.3536,4.4455 0.3535,4.4455 11.6518,0.3159 c 6.4085,0.1737 11.7939,0.4126 11.9675,0.5308 0.1737,0.1183 1.1721,-0.2432 2.2186,-0.8033 z m -131.8365,-14.6583 c 10.2693,-1.345 12.8018,-1.988 12.8005,-3.25 -0.001,-1.3461 -2.1681,-1.622 -15,-1.9104 l -14.9983,-0.337 v 3.587 c 0,4.3066 -0.5941,4.2406 17.1978,1.9104 z m 210.5522,-1.767 c 0,-2.2099 -0.5223,-2.5089 -5.4611,-3.126 -5.9337,-0.7413 -19.9254,-0.1272 -20.9732,0.9206 -1.4634,1.4634 1.4311,2.1853 13.0083,3.2442 6.6968,0.6125 12.4572,1.1792 12.801,1.2593 0.3437,0.08 0.625,-0.9541 0.625,-2.2981 z m -190.75,-1.9397 c 0,-0.2108 -0.9,-0.6187 -2,-0.9064 -1.1,-0.2876 -2,-0.1151 -2,0.3834 0,0.4985 0.9,0.9064 2,0.9064 1.1,0 2,-0.1725 2,-0.3834 z m 8.7616,-1.3037 c -0.9561,-0.2503 -2.7561,-0.2594 -4,-0.02 -1.2439,0.2392 -0.4616,0.444 1.7384,0.4551 2.2,0.011 3.2177,-0.1846 2.2616,-0.4349 z m 8.9884,-1.0023 c -0.9625,-0.2515 -2.5375,-0.2515 -3.5,0 -0.9625,0.2516 -0.175,0.4574 1.75,0.4574 1.925,0 2.7125,-0.2058 1.75,-0.4574 z m 70.0344,-0.9724 c 4.5916,-1.7536 4.6116,-1.8195 2.6007,-8.5882 -0.3314,-1.1155 0.02,-1.75 0.968,-1.75 1.3891,0 2.7175,3.5958 3.1402,8.5 0.18,2.0874 0.5083,2.1581 3.1519,0.6787 1.3878,-0.7767 1.4367,-1.4191 0.3644,-4.7879 -1.4068,-4.42 -6.1316,-12.2863 -8.866,-14.7609 -2.4133,-2.184 -14.4029,-3.0405 -19.0551,-1.3613 -6.2102,2.2416 -13.333,18.5437 -9.3858,21.4814 3.0025,2.2346 3.9666,1.4215 4.15,-3.5 0.2101,-5.6374 0.924,-8.25 2.2542,-8.25 0.5568,0 0.8485,2.6707 0.6826,6.25 l -0.2895,6.25 6.5,0.5774 c 3.575,0.3175 7.1599,0.655 7.9665,0.75 0.8067,0.095 3.4247,-0.5752 5.8179,-1.4892 z m 33.2147,0.4914 c 5e-4,-0.3688 -3.0366,-0.9473 -6.7491,-1.2857 -3.7125,-0.3384 -7.8975,-0.7949 -9.3001,-1.0146 -1.7687,-0.277 -2.9376,0.2213 -3.8149,1.6261 -1.2448,1.9933 -1.0968,2.0201 9.2991,1.685 5.8103,-0.1872 10.5645,-0.6421 10.565,-1.0108 z m -36.9991,-28.6746 c 0,-1.616 -0.903,-3.6622 -2.0903,-4.7368 -2.0513,-1.8563 -2.1167,-1.8556 -3.5,0.036 -0.7754,1.0604 -1.4097,3.1919 -1.4097,4.7368 0,2.5434 0.3307,2.8088 3.5,2.8088 3.1798,0 3.5,-0.2602 3.5,-2.845 z m -126.4604,53.9092 c -0.9536,-1.5431 8.0133,-2.3622 18.8159,-1.7187 5.5795,0.3323 12.057,0.6156 14.3945,0.6294 2.3375,0.014 4.25,0.4751 4.25,1.0251 0,1.2981 -36.6589,1.3609 -37.4604,0.064 z m 220.4604,-1.0198 c -15.5621,-0.6276 -16.0667,-1.9398 -0.8562,-2.2263 10.8017,-0.2035 17.2751,0.695 16.3059,2.2632 -0.3123,0.5053 -0.8787,0.8262 -1.2587,0.7131 -0.3801,-0.113 -6.766,-0.4505 -14.191,-0.75 z m 257.5,-23.152 c -41.7422,-1.208 -60.5,-2.2007 -60.5,-3.2019 0,-0.6479 6.0224,-0.7622 17.25,-0.3275 9.4875,0.3674 27.9533,0.9546 41.0352,1.3049 20.6208,0.5522 27.0672,1.2277 23.9811,2.513 -0.4215,0.1756 -10.2163,0.046 -21.7663,-0.2885 z m -552.5,-1.7843 c -1.7807,-0.5247 -0.054,-0.9322 6,-1.4164 12.8883,-1.0307 31,-0.8506 31,0.3083 0,0.6223 -5.7591,1.0051 -15.25,1.0136 -8.3875,0.01 -16.15,0.1976 -17.25,0.4224 -1.1,0.2248 -3.125,0.077 -4.5,-0.3279 z m -60,-2.3331 c -3.575,-0.5232 -27.726,-1.0251 -53.6688,-1.1153 -25.9428,-0.09 -47.4343,-0.4295 -47.7589,-0.7541 -0.826,-0.8259 29.946,-1.8996 54.4277,-1.899 19.9285,4e-4 50.7011,1.4657 54.2645,2.5837 1.6074,0.5044 1.5398,2.5923 -0.073,2.2729 -0.38,-0.075 -3.616,-0.565 -7.191,-1.0882 z m 416.0025,-26.8676 c -0.01,-1.9076 129.3236,-2.8068 130.4975,-0.9074 0.4085,0.661 -17.4508,1.06 -52.691,1.1771 -29.32,0.097 -58.8204,0.2099 -65.5565,0.25 -6.7361,0.04 -12.2486,-0.1938 -12.25,-0.5197 z m -577.0025,-0.8871 c -18.425001,-0.2862 -33.387501,-0.8814 -33.249901,-1.3228 0.1376,-0.4414 14.9876,-0.6664 33.000001,-0.5 18.0124,0.1664 54.8735,0.3025 81.9135,0.3025 27.04,0 49.4346,0.2696 49.7658,0.5991 1.8829,1.8734 -47.7287,2.2211 -131.4294,0.9212 z m 268.6891,-4.7143 c -0.8071,-1.3059 23.3555,-2.2984 56.0609,-2.3027 16.1689,0 25.25,0.3563 25.25,0.9967 0,0.6387 -8.6135,1 -23.8403,1 -13.1122,0 -31.2686,0.2929 -40.3477,0.651 -10.5959,0.4179 -16.7277,0.2944 -17.1229,-0.345 z m 349.3109,-19.4885 c 0,-0.9755 -3.0677,-0.9252 69.7499,-1.1432 32.0374,-0.096 58.2499,0.1027 58.25,0.4412 2e-4,1.3108 -30.5723,2.0005 -78.2499,1.7651 -27.3625,-0.1351 -49.75,-0.6135 -49.75,-1.0631 z m 170.25,-0.5669 c -18.3442,-0.1761 -29.25,-0.6481 -29.25,-1.2657 0,-0.6216 9.723,-0.9849 26.3604,-0.9849 27.0569,0 36.8664,0.6064 34.4625,2.1306 -0.7276,0.4613 -1.5479,0.7402 -1.8229,0.6198 -0.275,-0.1205 -13.6625,-0.3454 -29.75,-0.4998 z m -783.251,-3.3936 c 0,-1.5707 4.8573,-1.8562 31.3328,-1.8425 15.4925,0.01 52.2488,-0.5049 81.6808,-1.1398 52.0276,-1.1222 68.9874,-0.7957 68.9874,1.3281 0,0.6808 -2.5672,0.7916 -7.5407,0.3255 -4.1474,-0.3886 -34.4099,-0.2017 -67.25,0.4155 -77.3957,1.4544 -107.2114,1.7084 -107.2103,0.9132 z m 515.6656,-3.5906 c -0.359,-0.581 10.4657,-1.2011 28.038,-1.6064 42.1044,-0.9709 69.2974,-0.8375 69.2974,0.34 0,0.6404 -9.4392,1.0121 -26.25,1.0337 -14.4375,0.019 -36.2064,0.2914 -48.3753,0.6063 -13.4935,0.3492 -22.3534,0.2035 -22.7101,-0.3736 z m -161.231,-1.3738 c -0.7184,-1.1624 73.3461,-2.1611 103.4638,-1.3952 16.0064,0.407 29.1026,1.0241 29.1025,1.3713 0,0.844 -132.0447,0.8678 -132.5663,0.024 z m 335.0241,-12.961 c -0.7055,-1.1415 13.8692,-1.8075 64.0423,-2.9266 59.582,-1.329 116.5,-1.3314 116.5,-0.01 0,0.6483 -12.7484,0.9991 -36.25,0.9975 -30.7868,0 -72.9586,0.7479 -131.041,2.3304 -7.0351,0.1916 -12.9981,0.013 -13.2513,-0.3963 z m -602.4577,-5.9029 c -3.575,-0.3606 -38.5625,-0.4554 -77.75,-0.2108 -52.610801,0.3284 -71.250001,0.1488 -71.250001,-0.6866 0,-1.0421 48.8127,-1.6457 123.500001,-1.527 19.6952,0.031 35.2282,0.7906 36.2075,1.7698 0.3442,0.3442 0.1376,0.6259 -0.4591,0.6259 -0.5967,0 -1.6842,0.154 -2.4166,0.3422 -0.7325,0.1882 -4.2568,0.047 -7.8318,-0.3135 z m 413,-0.2489 c -54.9886,-1.204 -87.0725,-1.3472 -95.75,-0.4273 -4.5952,0.4871 -7.25,0.4094 -7.25,-0.2124 0,-2.6244 27.6332,-3.0032 104.918,-1.4383 30.0692,0.6089 39.5165,1.0946 39.8333,2.0482 0.2284,0.6875 0.04,1.175 -0.418,1.0833 -0.4583,-0.092 -19.0583,-0.5658 -41.3333,-1.0535 z m -370,-1.6213 c 0,-1.7288 26.925,-3.1229 72.6113,-3.7596 34.5443,-0.4814 47.2975,-0.3554 47.8091,0.4723 0.4705,0.7613 -0.5425,1.1387 -3.1114,1.1591 -50.6348,0.4034 -94.9435,1.275 -102.665,2.0194 -12.1132,1.1679 -14.644,1.1867 -14.644,0.1088 z m 188,-13.0244 c 0,-1.6203 10.1174,-2.0773 59.6419,-2.6937 33.9795,-0.423 48.3381,-0.2817 48.809,0.4802 0.4648,0.752 -3.5208,1.0895 -13.1419,1.1128 -26.4955,0.064 -77.8756,0.9499 -86.559,1.4921 -5.1678,0.3227 -8.75,0.1624 -8.75,-0.3914 z m 176,0.1115 c 0,-1.8289 11.2515,-2.1634 78,-2.3187 79.5222,-0.1851 83,-0.1489 83,0.8626 0,0.4342 -33.4125,0.8878 -74.25,1.008 -40.8375,0.1202 -77.0625,0.4923 -80.5,0.827 -3.8574,0.3755 -6.25,0.2305 -6.25,-0.3789 z m -258.187,-11.76594 c -0.7786,-0.77865 -45.8888,-1.31716 -161.313,-1.92571 -118.385601,-0.62416 -168.500031,-1.41929 -168.500031,-2.67345 0,-1.02151 -3.66635,-0.97691 72.52533,-0.88218 l 59.025301,0.0734 10.6138,-3.44014 c 5.8376,-1.89208 11.6762,-4.11137 12.9747,-4.93175 1.2985,-0.82038 3.4859,-1.81668 4.8609,-2.21401 1.375,-0.39732 3.1893,-1.32511 4.0319,-2.06175 3.3199,-2.90256 21.7673,-9.85372 40.2181,-15.15458 0.9625,-0.27653 1.75,-0.006 1.75,0.60044 0,1.32715 -4.2404,3.14455 -13,5.57174 -7.2556,2.01043 -24.6819,9.17248 -27,11.09672 -1.9439,1.61357 -13.8341,6.35878 -21.5,8.58033 l -6,1.73878 25.0621,0.0712 c 22.6946,0.0645 25.435,-0.10888 29.0085,-1.83538 2.1704,-1.04865 9.7924,-4.00928 16.9378,-6.5792 7.1454,-2.56992 14.6694,-5.76194 16.7201,-7.09338 4.2624,-2.76741 6.2465,-3.10107 5.4053,-0.90901 -0.5177,1.34905 -0.2654,1.34905 2.3434,0 3.2467,-1.67895 6.0228,-1.97475 6.0228,-0.64175 0,0.47852 -2.1375,1.41212 -4.75,2.07467 -2.6125,0.66254 -7.675,2.6991 -11.25,4.52568 -5.7318,2.92856 -10.9086,4.7305 -25.3002,8.80653 -6.0629,1.71718 -5.2182,2.53439 2.0192,1.95343 4.9382,-0.39639 9.3274,-1.70087 16.7372,-4.97439 5.5241,-2.4404 11.6188,-5.0432 13.5438,-5.78399 10.2804,-3.95617 15.3348,-6.4262 13.1949,-6.44823 -1.8095,-0.0186 -2.8054,-1.15219 -4.6331,-5.27374 -3.0127,-6.79346 -5.1993,-8.65514 -11.2986,-9.6193 -3.8335,-0.606 -6.5324,-0.32925 -11.6423,1.19384 -5.5826,1.66395 -7.2701,1.79755 -10.4961,0.83099 -3.2527,-0.97453 -4.3392,-2.08045 -7.0616,-7.18833 l -3.2175,-6.03662 -7.1729,0.61946 c -4.9857,0.43057 -8.9034,0.15883 -12.8483,-0.89116 -5.3974,-1.4366 -9.1129,-1.30394 -11.3293,0.40451 -0.5527,0.42599 -6.1777,2.88687 -12.5,5.46863 -6.3224,2.58176 -16.9499,7.34323 -23.6166,10.58105 -6.6668,3.23784 -12.614,5.88696 -13.2161,5.88696 -0.6021,0 -2.6414,-0.73758 -4.5318,-1.63906 -3.4122,-1.62717 -3.4905,-1.61032 -10.784,2.3195 -15.023401,8.09492 -33.143601,12.93391 -51.624101,13.78623 -4.4283,0.20424 -9.0556,0.90873 -10.2828,1.56555 -3.7368,1.99986 -11.58713,0.67987 -14.9143,-2.50776 -3.06857,-2.93988 -3.81663,-2.97403 -14.02553,-0.64027 -5.54173,1.26685 -17.0000002,1.43199 -17.0000002,0.24502 0,-0.47893 3.1662002,-1.18278 7.0359902,-1.5641 3.8698,-0.38132 9.51675,-1.33946 12.54879,-2.12921 7.95628,-2.07234 10.04283,-1.83653 12.98692,1.46771 3.36255,3.77389 8.30173,4.736 12.65043,2.46421 1.9978,-1.04365 6.2068,-1.83692 10.7779,-2.03132 18.8098,-0.79995 35.9603,-5.17953 49.029401,-12.52021 8.6907,-4.8814 11.1444,-5.41738 14.8312,-3.23957 l 2.9838,1.7626 11.8278,-5.77597 c 6.5053,-3.17678 16.2649,-7.54428 21.688,-9.70555 5.4231,-2.16128 11.5927,-4.81344 13.7101,-5.8937 4.4111,-2.25033 9.1111,-2.42055 16.8646,-0.61079 3.7693,0.87979 7.2086,1.00011 11.2226,0.39258 3.1832,-0.48179 6.4654,-0.49664 7.2939,-0.033 0.8285,0.46363 2.7533,3.3054 4.2774,6.31505 3.5619,7.03346 5.9852,7.98087 14.1165,5.51891 7.1942,-2.17824 16.6136,-1.78658 20.6508,0.85866 1.5881,1.04057 3.7806,4.20654 5.2145,7.52964 2.3814,5.51926 2.6674,5.78273 7.6317,7.03181 2.8367,0.71374 6.3832,1.9185 7.881,2.67725 1.8912,0.95802 4.403,1.18213 8.2206,0.73344 6.5508,-0.76992 9.9567,0.94351 12.1075,6.09111 1.4574,3.48822 5.3221,5.53125 10.4629,5.53125 1.4938,0 3.9388,0.96192 5.4335,2.13759 2.2717,1.78694 4.2213,2.16997 11.8848,2.33496 5.0421,0.10854 11.3049,0.55515 13.9174,0.99245 3.1616,0.52922 4.75,0.44315 4.75,-0.2574 0,-1.25811 6.491,-3.5567 8.2587,-2.92455 0.6827,0.24415 -0.3337,1.18332 -2.2587,2.08705 -3.341,1.56847 -2.5355,1.62259 17.7246,1.19092 13.7304,-0.29255 21.4455,-0.0948 21.8501,0.55991 0.3441,0.55667 0.468,1.15508 0.2754,1.3298 -0.6302,0.57178 -39.4954,1.57062 -40.0371,1.02896 z m -37.813,-4.39179 c 0,-0.50166 -1.9125,-1.21207 -4.25,-1.5787 -2.3375,-0.36663 -6.5005,-1.48295 -9.2511,-2.48072 -4.5128,-1.63702 -5.6847,-1.68483 -12.0046,-0.48982 -3.852,0.72836 -8.2684,1.80513 -9.8141,2.39282 -3.6131,1.37371 -5.9828,1.36713 -5.1291,-0.0142 1.5729,-2.54496 12.2431,-5.60887 21.6989,-6.23072 2.2679,-0.14915 2.2101,-0.96016 -0.2255,-3.16435 -1.5526,-1.40509 -2.9976,-1.66297 -6.75,-1.20467 -3.4777,0.42475 -6.4089,0.0106 -10.7922,-1.52491 l -6.0176,-2.10804 -8.9824,4.00529 c -4.9403,2.2029 -13.4706,5.76138 -18.9563,7.90772 l -9.974,3.90244 8.3813,0.29298 c 4.6097,0.16115 9.7277,-0.17635 11.3732,-0.75 3.7779,-1.31697 8.6935,-1.35098 8.6935,-0.0601 0,0.61029 9.5708,1.0909 25.25,1.26796 13.8875,0.15682 25.5875,0.38955 26,0.51717 0.4125,0.12762 0.75,-0.17841 0.75,-0.68006 z m 627,0.13989 c 0,-1.8654 7.1489,-2.36655 39.1319,-2.74318 24.2599,-0.28569 31.86797,-0.0899 31.86777,0.82005 -2e-4,0.89356 -7.38487,1.2652 -29.24997,1.47205 -16.0874,0.15219 -32.0622,0.54211 -35.4997,0.8665 -3.9128,0.36923 -6.25,0.21387 -6.25,-0.41542 z m -572,-1.14214 c 0,-0.50289 -1.6896,-2.7809 -3.7547,-5.06225 -5.2683,-5.82005 -9.1629,-6.21196 -21.39,-2.15248 -5.1454,1.7083 -11.6053,3.53008 -14.3553,4.0484 -2.75,0.51831 -5.7875,1.24665 -6.75,1.61852 -0.9971,0.38523 -1.75,0.21613 -1.75,-0.39303 0,-0.58804 3.4875,-2.1561 7.75,-3.48458 4.2625,-1.32848 10.8411,-3.5955 14.619,-5.03782 11.8245,-4.51424 18.2897,-3.34382 25.0306,4.53137 3.8259,4.46964 4.555,6.84622 2.1004,6.84622 -0.825,0 -1.5,-0.41146 -1.5,-0.91435 z m 89.6353,-4.96353 c -5.272,-11.74747 -7.0596,-19.12212 -4.6353,-19.12212 0.55,0 1,0.95783 1,2.12852 0,1.17068 1.8,6.34154 4,11.49079 4.1364,9.68155 4.6047,11.38069 3.1365,11.38069 -0.4749,0 -2.0504,-2.64505 -3.5012,-5.87788 z m 7.7301,4.09559 c 0.3386,-0.54788 1.8421,-1.30395 3.341,-1.68016 1.4989,-0.3762 7.9156,-3.07185 14.2594,-5.99034 15.2992,-7.03843 30.0597,-12.85504 30.7839,-12.13085 0.8653,0.8653 0.7377,0.93165 -12.2497,6.37277 -6.6,2.76508 -16.05,6.81238 -21,8.994 -9.5266,4.19865 -16.1966,6.15305 -15.1346,4.43458 z m -282.3654,-1.15731 c 0,-1.54474 3.9005,-3.198 33,-13.98723 13.475,-4.99613 26.3,-9.98272 28.5,-11.0813 7.2027,-3.59671 9.3178,-1.92651 2.25,1.77666 -3.5404,1.85496 -56.4045,22.26864 -62,23.94153 -0.9694,0.28981 -1.75,0 -1.75,-0.64966 z m 695,0.16752 c 0,-1.41688 16.5196,-17.22792 18,-17.22792 0.8021,0 -2.573,4.05 -7.5,9 -8.4127,8.45185 -10.5,10.08749 -10.5,8.22792 z m -386.3677,-1.26023 c 0.9227,-0.92268 9.4912,-4.66146 38.8677,-16.95949 9.9518,-4.16616 16.6871,-7.23577 32.8423,-14.96775 5.9632,-2.85405 11.0516,-4.97982 11.3075,-4.72391 1.7126,1.71253 -19.4456,12.04847 -55.4789,27.10189 -23.7065,9.90375 -30.1155,12.12611 -27.5386,9.54926 z m 32.3939,0.28231 c 0.014,-0.4125 9.127,-5.18362 20.25,-10.60249 11.1231,-5.41887 23.8794,-12.05637 28.3474,-14.75 7.8037,-4.70461 10.4301,-5.75917 10.3296,-4.14751 -0.081,1.30005 -18.7359,11.6134 -38.1781,21.10682 -18.2466,8.90962 -20.8032,9.94377 -20.7489,8.39318 z m 194.9738,-0.20785 c 0,-0.52681 2.1375,-2.1694 4.75,-3.6502 12.9812,-7.35791 43.3589,-28.49126 50.75,-35.30602 9.7162,-8.95863 16.5574,-14.36184 17.2743,-13.64337 1.0016,1.0037 -15.3104,16.12091 -26.5036,24.56237 -15.0369,11.34015 -42.8862,28.99507 -45.7375,28.99507 -0.2933,0 -0.5332,-0.43103 -0.5332,-0.95785 z m -51,-1.56359 c 0,-0.81321 0.4382,-1.47856 0.9737,-1.47856 1.8839,0 27.611,-15.26395 34.8311,-20.66535 4.0177,-3.00562 7.8117,-5.2958 8.4313,-5.08928 2.0928,0.6976 -12.8188,11.66337 -25.8196,18.98729 -16.7021,9.40906 -18.4165,10.17667 -18.4165,8.2459 z m 153.651,-0.23415 c -0.7752,-1.25428 13.1834,-14.6404 26.349,-25.26828 11.6239,-9.38338 16.1715,-13.72247 23.3076,-22.2387 2.6442,-3.15559 5.5183,-5.73743 6.3868,-5.73743 1.0407,0 0.073,1.61992 -2.8379,4.75 -2.4294,2.6125 -5.6666,6.40102 -7.1937,8.41894 -1.5271,2.01791 -8.02,8.09291 -14.4287,13.5 -15.5544,13.12344 -19.7876,16.827 -25.8646,22.62869 -2.8218,2.69393 -5.3951,4.46998 -5.7185,3.94678 z m -70.0778,-1.49441 c 0.2808,-0.6875 2.6292,-2.82154 5.2186,-4.74231 11.5579,-8.5732 39.2082,-32.6276 39.2082,-34.10921 0,-0.49416 0.675,-0.89848 1.5,-0.89848 0.825,0 1.5,0.41121 1.5,0.91379 0,2.06812 -26.3444,25.4546 -39.9896,35.49959 -6.3467,4.67219 -8.3496,5.57076 -7.4372,3.33662 z m 92.4273,-0.5 c 3e-4,-0.4125 3.6357,-4.0747 8.0787,-8.13822 4.4429,-4.06353 11.0395,-10.92603 14.6589,-15.25 3.6195,-4.32398 7.1877,-7.86178 7.9294,-7.86178 1.9964,0 -9.1099,13.23471 -19.511,23.25 -8.3016,7.99365 -11.1575,10.04158 -11.156,8 z m -730.0005,-0.97871 c 0,-0.5575 2.1845,-1.30341 4.8544,-1.6576 2.7584,-0.36591 12.3657,-4.02077 22.25,-8.46445 9.5676,-4.30126 23.6956,-10.20413 31.3956,-13.11747 7.7,-2.91335 16.1225,-6.36232 18.7167,-7.66438 5.8357,-2.92897 7.7083,-3.04706 5.2504,-0.3311 -1.8509,2.04526 -5.2723,3.75966 -15.4671,7.7502 -3.025,1.18408 -10.7336,4.19743 -17.1301,6.69634 -6.3966,2.4989 -17.6413,7.25565 -24.9882,10.57055 -9.2168,4.15856 -15.1444,6.21378 -19.1199,6.6293 -3.6223,0.37861 -5.7618,0.22584 -5.7618,-0.41139 z m 447.5217,-1.23614 c -0.3229,-0.52249 0.8901,-1.70263 2.6956,-2.62254 1.8055,-0.91991 7.3853,-4.10879 12.3996,-7.08641 5.2293,-3.10527 15.037,-7.55687 23,-10.43945 26.6591,-9.65047 32.2001,-12.12706 43.6643,-19.51607 3.7296,-2.40387 6.9921,-4.37068 7.25,-4.37068 3.189,0 -9.0832,8.85379 -19.0312,13.73009 -7.309,3.58268 -27.0567,11.20824 -38.107,14.71496 -2.8088,0.89136 -9.3338,4.12394 -14.5,7.1835 -13.213,7.82517 -16.6906,9.50807 -17.3713,8.4066 z m 235.5249,-1.03515 c 0,-2.01114 7.8232,-10.21006 9.275,-9.72613 0.6313,0.21045 -1.198,2.82242 -4.0653,5.80438 -2.8828,2.99812 -5.2116,4.75122 -5.2097,3.92175 z m -330.5821,-5.05744 c -0.2887,-0.46707 1.4012,-1.365 3.7553,-1.9954 4.8905,-1.30963 12.3263,-4.34771 22.9292,-9.36831 4.043,-1.91443 12.1885,-5.52785 18.101,-8.02981 5.9125,-2.50197 15.5875,-6.60329 21.5,-9.11403 5.9125,-2.51075 15.025,-6.06288 20.25,-7.89361 5.225,-1.83074 14.225,-5.22501 20,-7.54281 5.775,-2.3178 13.875,-5.30853 18,-6.64607 4.125,-1.33753 11.55,-4.41253 16.5,-6.83334 7.2084,-3.52529 20.5223,-9.537 29.25,-13.20747 0.6875,-0.28913 1.25,-0.0332 1.25,0.56876 0,1.5674 -6.2836,5.26965 -15.1899,8.94982 -4.2294,1.74764 -11.6544,5.17381 -16.5,7.61371 -4.8456,2.43991 -12.8743,5.75073 -17.8417,7.35739 -4.9673,1.60666 -14.8673,5.21305 -22,8.0142 -7.1326,2.80115 -19.9434,7.78946 -28.4684,11.08514 -18.4049,7.11512 -37.1853,14.76657 -45.5,18.53747 -14.341,6.50389 -25.0999,10.01824 -26.0355,8.50436 z m -11.8428,-9.80802 c -1.1441,-1.26428 -1.3824,-2.16439 -0.6869,-2.59428 0.5859,-0.36206 1.0674,-1.86924 1.0701,-3.34928 0.01,-3.1678 2.6258,-6.39658 9.4951,-11.70158 2.75,-2.12377 5.1205,-3.93575 5.2679,-4.02662 0.1473,-0.0909 -0.3924,-1.43786 -1.1994,-2.99331 -1.8069,-3.4829 -1.524,-3.97691 5.9315,-10.35791 3.3,-2.8244 11.078,-9.51743 17.2844,-14.87341 6.2065,-5.35598 13.1815,-11.20386 15.5,-12.99527 2.3186,-1.79142 4.5773,-3.59142 5.0195,-4 1.6254,-1.50206 7.5468,-11.22925 7.8758,-12.93777 0.1868,-0.96958 2.8696,-3.43714 5.962,-5.48345 3.0923,-2.04632 6.688,-5.09839 7.9904,-6.78239 17.9263,-23.17951 28.9029,-33.8601 48.6773,-47.36456 4.5701,-3.12109 8.8327,-5.67471 9.4725,-5.67471 0.6397,0 0.163,-0.70052 -1.0594,-1.5567 -3.3013,-2.31233 -2.7368,-4.12541 2.402,-7.71391 2.5435,-1.77616 11.1505,-8.06689 19.1267,-13.97939 12.8461,-9.52248 16.2488,-11.69703 16.2488,-10.38425 0,0.92574 -20.6232,16.97555 -28.3577,22.06911 -4.7533,3.13028 -8.6423,6.05791 -8.6423,6.50584 0,0.44792 0.6853,1.38319 1.523,2.07837 2.4847,2.06217 9.1362,-1.58714 16.3725,-8.98274 13.8039,-14.10772 41.9407,-32.95948 55.2336,-37.00669 1.996,-0.60771 4.471,-2.03763 5.5,-3.1776 1.029,-1.13997 4.8321,-3.56526 8.4513,-5.38952 3.6192,-1.82427 9.6942,-5.45725 13.5,-8.0733 3.8058,-2.61605 8.7951,-6.03073 11.0873,-7.58818 5.8029,-3.94265 11.0932,-5.61572 18.8601,-5.96453 5.1419,-0.23092 6.9243,0.0584 7.8165,1.26884 1.7889,2.42709 4.5672,3.58645 12.5575,5.24023 4.0529,0.83883 7.848,2.00424 8.4335,2.58979 0.5856,0.58554 2.5892,1.06463 4.4526,1.06463 h 3.3879 l -0.6675,3.95079 c -0.6478,3.83437 -0.5694,3.97604 2.6621,4.80784 2.9025,0.74714 3.3685,1.31594 3.6331,4.43493 0.263,3.09966 0.7141,3.65996 3.375,4.19215 1.6893,0.33786 4.7601,0.61429 6.824,0.61429 4.6247,0 6.9115,2.18943 4.8699,4.66262 -1.0699,1.29619 -1.0969,1.75534 -0.1224,2.08333 2.3948,0.80604 1.2284,2.25405 -1.8158,2.25405 -1.6861,0 -3.9747,0.48646 -5.0856,1.08102 -3.6622,1.95993 -3.2512,-0.0198 0.7347,-3.53937 3.9061,-3.44907 3.9095,-3.45851 1.243,-3.50002 -1.4706,-0.0229 -4.9581,-0.56892 -7.75,-1.21338 -4.8619,-1.12226 -5.0763,-1.31364 -5.0763,-4.53138 0,-2.32698 -0.5379,-3.52586 -1.75,-3.90041 -3.4722,-1.07294 -4.7555,-2.13739 -5.0632,-4.19982 -0.2685,-1.79952 -0.6702,-1.96335 -2.8151,-1.14788 -1.3761,0.52318 -3.4251,0.95124 -4.5535,0.95124 -2.0437,0 -2.1181,-0.91848 -0.4079,-5.03306 0.5134,-1.23538 -0.9616,-1.86916 -7.5965,-3.26404 -5.5383,-1.16433 -9.0652,-2.50194 -10.7738,-4.08606 -2.3599,-2.1881 -3.0316,-2.30128 -9.4729,-1.59617 -4.6185,0.50558 -7.3364,1.31095 -8.142,2.41258 -1.3859,1.89538 -19.6869,13.10476 -29.6136,18.13836 -3.6787,1.86537 -9.1848,5.42487 -12.2359,7.90999 -5.5371,4.51006 -9.1576,6.1295 -6.4738,2.89574 0.7406,-0.89246 -2.6918,0.40833 -7.6276,2.89063 -14.9231,7.50506 -48.3308,33.75206 -50.7843,39.8991 -0.2926,0.73311 -0.5676,0.8299 -0.611,0.21508 -0.2303,-3.26078 -27.8822,14.53107 -41.2474,26.53947 -6.3102,5.6696 -25.3746,27.07838 -24.1132,27.07838 3.2191,0 32.1502,-9.43447 47.7817,-15.58169 25.533,-10.04106 23.7714,-9.13373 39.6583,-20.42613 13.4789,-9.58074 15.8417,-10.95273 15.8417,-9.19876 0,1.77976 -30.4421,23.46785 -35.3619,25.1931 -2.8259,0.99102 -12.3381,4.71098 -21.1381,8.26657 -21.2372,8.58073 -40.6594,14.75769 -46.3788,14.75008 -1.3084,-0.002 -4.0465,1.45933 -6.0848,3.24683 -2.0383,1.7875 -5.1304,4.01657 -6.8712,4.95349 -1.7409,0.93692 -3.1652,2.4458 -3.1652,3.35307 0,0.90727 -2.025,3.90187 -4.5,6.65466 -5.0751,5.64475 -5.8584,7.87936 -1.75,4.99279 3.0592,-2.14945 21.5273,-10.27223 27.75,-12.20521 2.2,-0.68339 6.7,-2.36457 10,-3.73595 3.3,-1.37138 9.15,-3.72678 13,-5.23423 30.3867,-11.89777 41.9362,-17.08102 52.5,-23.56129 4.675,-2.86784 14.125,-8.46722 21,-12.44306 12.7625,-7.38065 23.838,-14.91175 43.6773,-29.69979 11.2542,-8.38881 14.3352,-10.25825 14.3077,-8.68147 -0.014,0.80525 -17.8002,14.36876 -29.985,22.86623 -3.025,2.10957 -6.625,4.85695 -8,6.10529 -4.6591,4.22991 -48.6918,30.0332 -58.1246,34.06118 -23.5772,10.06788 -44.4656,18.4792 -57.8754,23.30519 -16.9785,6.11029 -22.1349,8.30714 -28.8036,12.27165 -3.467,2.0611 -6.7704,3.74745 -7.341,3.74745 -0.5706,0 -2.721,1.4625 -4.7787,3.25 -22.5897,19.62386 -33.0767,29.25932 -33.0767,30.39082 0,1.86691 0.5529,1.7351 4.7852,-1.14082 4.1098,-2.79273 5.2148,-3.06555 5.2148,-1.28756 0,1.31832 -1.5815,2.74953 -13.17,11.91849 -6.9598,5.50667 -8.2973,7.234 -10.2507,13.2384 -0.7402,2.27529 0.695,2.03478 10.9207,-1.83002 3.85,-1.45512 11.275,-4.14681 16.5,-5.98154 13.5133,-4.74512 25.1632,-9.92996 35.1453,-15.64156 11.1844,-6.39956 21.6133,-11.10976 23.7028,-10.70539 0.9085,0.17583 -3.0731,2.64313 -8.8481,5.4829 -5.775,2.83977 -13.2,6.81369 -16.5,8.83095 -13.2686,8.11094 -24.8199,13.14675 -46,20.05375 -7.15,2.33167 -13.7034,4.52126 -14.5631,4.86576 -0.9154,0.36681 -2.2891,-0.17586 -3.3152,-1.30964 z m 298.1283,-209.76483 c 1.2375,-0.33163 2.25,-1.00049 2.25,-1.48634 0,-1.45098 -3.6585,-0.9998 -5,0.61663 -1.3453,1.62092 -0.7526,1.80837 2.75,0.86971 z m -24.2045,209.42999 c 13.7689,-7.82692 25.5068,-16.00664 35.0467,-24.42274 13.3269,-11.75699 17.2824,-14.83572 18.0606,-14.05751 0.3291,0.3291 -0.9207,1.84447 -2.7773,3.36749 -1.8565,1.52303 -6.3005,5.50602 -9.8755,8.85111 -3.575,3.34508 -8.975,8.11284 -12,10.59503 -7.8565,6.44667 -25.084,16.75595 -29.0941,17.41044 l -3.4059,0.55588 z m 83.4456,-10.5497 c 0,-0.9625 4.1517,-5.6875 9.2367,-10.5 8.5322,-8.07492 11.4555,-10.22459 10.6055,-7.79869 -0.3505,1.00027 -18.8525,20.04869 -19.4736,20.04869 -0.1978,0 -0.3637,-0.7875 -0.3686,-1.75 z m -221.3596,-7.03717 c -0.2786,-0.45088 5.8778,-3.64654 13.6809,-7.10146 29.957,-13.26375 32.7547,-14.93961 52.8881,-31.68114 8.4345,-7.01362 9.7995,-7.92433 9.7995,-6.53843 0,1.89929 -23.4871,21.26939 -31.7067,26.14895 -4.5137,2.67954 -15.9887,8.09278 -25.5,12.02942 -9.5114,3.93665 -17.5997,7.33865 -17.9742,7.56 -0.3745,0.22135 -0.9089,0.0335 -1.1876,-0.41734 z M 24.999999,511.84384 c 0,-1.70641 19.14978,-2.51667 61.24983,-2.59158 37.290301,-0.0664 46.730401,0.37463 39.500201,1.84524 -4.6703,0.94994 -100.750031,1.66168 -100.750031,0.74634 z m 806.000031,0.27453 c 0,-0.30778 3.2625,-4.42962 7.25,-9.15964 24.3231,-28.85245 25.7142,-30.65687 27.2895,-35.39968 1.9346,-5.82455 4.0122,-6.63558 2.986,-1.16565 -1.0573,5.63611 -2.7364,8.27716 -13.4204,21.10942 -15.6013,18.73814 -24.1051,27.42206 -24.1051,24.61555 z m -556.25,-1.08203 c -10.0313,-1.79186 4.5965,-2.28951 68.7372,-2.33852 39.318,-0.03 73.493,-0.32953 75.9444,-0.66555 6.6134,-0.90646 9.482,0.76641 3.0684,1.78935 -5.4836,0.87461 -143.3105,2.00774 -147.75,1.21472 z m 630.6262,-2.55785 c -0.9075,-1.47001 7.6179,-1.79038 55.3738,-2.08088 45.71487,-0.27809 58.37767,0.23148 42.99997,1.73035 -8.94467,0.87184 -97.85647,1.18865 -98.37377,0.35053 z m -319.3678,-0.48314 c 0.01,-0.88065 4.5542,-3.48743 20.9803,-12.03279 12.8126,-6.66549 21.2808,-12.31482 28.0103,-18.6863 2.8061,-2.65683 5.3167,-4.61587 5.5792,-4.35342 0.2624,0.26246 -1.5297,2.70934 -3.9826,5.43751 -4.9411,5.4957 -15.5138,12.95929 -24.9413,17.60676 -3.3849,1.66865 -9.5293,4.93852 -13.6543,7.26638 -7.9655,4.49517 -12.0054,6.09939 -11.9916,4.76186 z m 217.9916,-0.0863 c 0,-1.54714 15.8404,-17.72401 16.6058,-16.95857 0.3956,0.39553 -2.1664,3.75689 -5.6933,7.46968 -7.2783,7.6619 -10.9125,10.82205 -10.9125,9.48889 z m -326.9976,-11.87411 c 0,-1.0429 3.8466,-3.03209 34.3994,-17.80217 21.4878,-10.38775 24.4505,-11.55482 29.3334,-11.55482 6.8281,0 6.7398,2.07214 -0.1134,2.66111 -3.4966,0.3005 -10.119,3.01926 -24.4543,10.03957 -10.8124,5.2951 -23.4859,11.15797 -28.1633,13.02859 -4.6773,1.87061 -9.0667,3.64493 -9.7542,3.94291 -0.6875,0.29799 -1.249,0.15615 -1.2476,-0.31519 z m 306.0626,-6.22254 c -4.4964,-9.29454 -3.3192,-11.50785 1.2816,-2.40941 3.7036,7.32429 4.3023,9.27496 2.8466,9.27496 -0.4438,0 -2.3014,-3.0895 -4.1282,-6.86555 z m 15.935,4.26992 c 0,-1.12151 4.3878,-6.90615 11.7819,-15.53262 4.0676,-4.74553 9.7182,-12.62752 12.5568,-17.51552 2.8387,-4.888 6.6557,-11.03279 8.4823,-13.65509 2.9871,-4.28862 5.6636,-9.63335 7.598,-15.17311 0.5378,-1.5401 0.8721,-1.67503 1.5266,-0.61608 1.5458,2.50126 -1.0681,8.68556 -8.4811,20.06567 -2.3368,3.58731 -6.0595,9.67238 -8.2727,13.52238 -2.2132,3.85 -6.8743,10.15976 -10.3579,14.02169 -3.4837,3.86192 -7.8342,8.92442 -9.668,11.25 -2.9747,3.77264 -5.1659,5.31351 -5.1659,3.63268 z m 35,-2.95911 c 0,-0.54025 1.4625,-3.05868 3.25,-5.59652 1.7875,-2.53783 5.1791,-7.36675 7.5369,-10.73093 2.3577,-3.36417 6.3522,-10.72944 8.8766,-16.36725 2.5243,-5.63781 4.9827,-10.67806 5.4631,-11.20056 1.5394,-1.67439 0.9366,-4.49533 -1.2374,-5.79153 -1.1609,-0.69216 -6.0449,-7.10847 -10.8533,-14.25847 -10.5784,-15.72991 -22.964,-28.83285 -31.7741,-33.61436 -9.4917,-5.15145 -7.6923,-7.15601 2.0214,-2.25184 8.2832,4.18196 21.6324,18.03234 31.3853,32.56364 4.6872,6.9836 9.5884,13.3961 10.8916,14.25 4.0792,2.67282 4.8234,5.18446 2.6201,8.84277 -1.0633,1.76539 -3.8368,7.59514 -6.1635,12.95501 -2.3267,5.35987 -6.4119,12.78487 -9.0783,16.5 -5.5931,7.79284 -12.9384,16.13824 -12.9384,14.70004 z m -177,-9.41947 c 0,-0.53581 4.1625,-3.76176 9.25,-7.16877 5.0875,-3.40702 12.85,-8.96367 17.25,-12.34812 13.4288,-10.32938 32.2606,-23.5089 33.5911,-23.5089 1.9118,0 -2.7547,4.59746 -10.5911,10.43453 -40.036,29.82127 -49.5,36.05248 -49.5,32.59126 z m 115.3599,-4.28262 c -3.2044,-4.85594 -4.3605,-7.40925 -3.6683,-8.10141 0.6512,-0.65121 7.3084,8.86359 7.3084,10.44552 0,1.82382 -1.5473,0.82743 -3.6401,-2.34411 z m 21.6401,1.20717 c 0,-1.80964 2.7582,-6.49291 8.6051,-14.61092 3.1055,-4.31168 6.4336,-9.65837 7.3959,-11.88154 1.9708,-4.55297 9.8317,-15.45788 11.1429,-15.45788 1.4544,0 0.9831,1.0844 -2.6984,6.20868 -1.9549,2.72115 -4.9222,7.49989 -6.594,10.61943 -1.6717,3.11954 -5.1491,8.59689 -7.7275,12.17189 -2.5785,3.575 -5.7229,8.1875 -6.9876,10.25 -2.3678,3.86124 -3.1364,4.52303 -3.1364,2.70034 z m -250,-7.00723 c 0,-0.58129 3.3424,-2.5801 7.4276,-4.44178 4.0852,-1.86169 9.1477,-4.4678 11.25,-5.79136 8.0836,-5.08926 29.4524,-16.70451 31.829,-17.30098 3.2909,-0.82597 3.3162,1.32768 0.03,2.57699 -1.3547,0.51506 -5.2922,2.67656 -8.75,4.80334 -27.7213,17.05051 -41.7869,23.83434 -41.7869,20.15379 z m 238.8827,-2.69311 c 1.0578,-2.0625 4.1045,-6.28602 6.7703,-9.3856 2.6658,-3.09958 7.7397,-9.62458 11.2753,-14.5 3.5355,-4.87542 9.6105,-13.04432 13.5,-18.15311 3.8894,-5.1088 7.9717,-10.60396 9.0717,-12.21148 1.1,-1.60753 2.3375,-2.9401 2.75,-2.96129 1.6433,-0.0844 0.5968,3.27663 -2.108,6.77012 -4.2743,5.5208 -19.501,26.19034 -23.8402,32.36189 -4.8618,6.915 -17.5456,21.82947 -18.5645,21.82947 -0.4279,0 0.088,-1.6875 1.1454,-3.75 z m -191.7951,1.23385 c 0.8338,-0.83388 6.6678,-3.70797 12.9642,-6.38687 6.2965,-2.6789 16.509,-7.1313 22.6946,-9.89422 6.1855,-2.76292 11.5085,-4.59937 11.8288,-4.08099 0.6901,1.11661 -18.0645,10.14215 -35.3371,17.00574 -13.4108,5.32905 -14.3952,5.60096 -12.1505,3.35634 z m 53.9124,-5.31763 c 0,-1.17129 9.1925,-7.24118 17.5,-11.55534 3.85,-1.99935 9.1019,-5.31722 11.6708,-7.37303 11.1611,-8.93162 21.7093,-18.38654 26.6081,-23.8502 9.7783,-10.90595 12.0772,-13.24728 14.6854,-14.95624 4.6928,-3.07485 3.9164,-0.57925 -1.2707,4.08441 -2.7964,2.51418 -6.0471,6.12901 -7.2238,8.03296 -2.5143,4.06833 -25.4932,24.69679 -33.7487,30.29671 -3.1466,2.13444 -8.576,5.32023 -12.0652,7.07955 -3.4893,1.75933 -8.1693,4.52091 -10.4001,6.13686 -4.1385,2.99795 -5.7558,3.58923 -5.7558,2.10432 z m 75,-1.11074 c 0,-0.51948 2.3625,-2.88198 5.25,-5.25 2.8875,-2.36801 9.2467,-8.25871 14.1317,-13.09044 4.8849,-4.83173 9.1205,-8.54613 9.4124,-8.25422 1.7709,1.77086 -7.7681,11.58534 -23.6075,24.28918 -4.2812,3.43372 -5.1866,3.83619 -5.1866,2.30548 z m -53,-1.9294 c 0,-0.89237 5.9753,-4.85975 27.8775,-18.50967 13.7049,-8.54114 20.3329,-10.25669 7.559,-1.9565 -8.6255,5.60463 -34.4884,21.34009 -35.0747,21.34009 -0.199,0 -0.3618,-0.39327 -0.3618,-0.87392 z m -53,-17.10923 c 0,-0.54074 2.3625,-2.16361 5.25,-3.60639 2.8875,-1.44278 10.2,-5.43893 16.25,-8.88032 6.05,-3.4414 13.9427,-7.86254 17.5393,-9.82474 3.5966,-1.96221 13.6862,-8.32162 22.4212,-14.13201 8.735,-5.81039 16.1356,-10.31061 16.4457,-10.00048 2.0023,2.00226 -45.9884,31.94933 -72.6164,45.314 -4.7707,2.39443 -5.2898,2.50532 -5.2898,1.12994 z m 40.1997,-7.26685 c 0.8525,-2.90855 55.2585,-37.20288 57.1579,-36.02899 1.3731,0.84866 -3.0737,4.16936 -15.2968,11.42299 -5.8085,3.44693 -15.7358,9.60446 -22.0608,13.6834 -21.3808,13.7883 -20.4974,13.30099 -19.8003,10.9226 z m 63.8003,-2.54328 c 0,-0.43631 2.2684,-3.47381 5.041,-6.75 5.9262,-7.00286 6.6705,-9.18004 4.544,-13.29227 -2.3262,-4.49833 -0.299,-4.71227 2.6062,-0.27504 l 2.4991,3.81714 -2.0951,4.06164 c -3.5306,6.84412 -12.5952,15.79605 -12.5952,12.43853 z m 2.25,-31.61956 c -8.4174,-8.20169 -8.3153,-9.36299 1.3517,-15.36636 4.1809,-2.59644 11.9116,-7.52761 17.1793,-10.95816 9.1307,-5.94631 11.8105,-6.96343 9.6836,-3.67546 -1.5319,2.36826 -18.1699,13.87456 -25.3869,17.55675 -3.6177,1.84584 -6.8027,3.51003 -7.0777,3.6982 -0.275,0.18818 2.3125,2.98942 5.75,6.22499 3.4375,3.23557 6.25,6.56911 6.25,7.40787 0,2.32604 -0.982,1.7067 -7.75,-4.88783 z m -68.25,1.55431 c 0,-0.4722 5.5125,-4.54527 12.25,-9.05128 6.7375,-4.50601 16.4492,-11.1329 21.5817,-14.72643 5.1324,-3.59353 9.6056,-6.25974 9.9405,-5.92491 1.2003,1.20035 -3.8203,4.95554 -30.2001,22.58834 -11.7544,7.85695 -13.5721,8.80974 -13.5721,7.11428 z m 135,-0.64407 c 0,-0.6621 7.0638,-7.02374 12.513,-11.2692 5.4045,-4.21058 6.1043,-5.94219 3.5152,-8.69811 -2.4257,-2.58212 -2.5618,-4.78617 -0.4905,-7.94739 1.4676,-2.23981 1.4157,-2.37756 -1.1366,-3.01817 -1.471,-0.36918 -4.1179,-1.77223 -5.8822,-3.11788 -1.7642,-1.34566 -3.8976,-2.44665 -4.7409,-2.44665 -2.7863,0 -3.8818,-2.40688 -2.1928,-4.81815 2.8573,-4.07941 -0.5272,-2.20081 -7.3291,4.06815 -11.0419,10.1766 -12.0175,10.94505 -12.6325,9.95004 -0.7754,-1.25465 10.4733,-13.47878 14.9482,-16.24443 1.9294,-1.19241 4.3895,-1.93747 5.4671,-1.65569 3.1234,0.8168 3.2962,-1.07387 0.2438,-2.66806 -1.5305,-0.79932 -4.1154,-2.85494 -5.7442,-4.56805 l -2.9615,-3.11475 -8.2393,8.77547 c -4.9819,5.30603 -8.2588,8.11987 -8.2885,7.11722 -0.068,-2.27644 13.8432,-18.2616 16.2539,-18.67763 1.2216,-0.21084 3.482,1.16359 6.0715,3.69191 2.269,2.21528 5.3629,4.49279 6.8754,5.06113 3.2779,1.2317 3.5943,4.00879 0.75,6.58284 -2.3472,2.1242 -2.5739,3.5 -0.5768,3.5 0.7829,0 2.8481,1.19884 4.5894,2.66408 1.9461,1.63755 4.5766,2.75331 6.8267,2.89566 2.0134,0.12737 3.7991,0.27854 3.9684,0.33592 0.1692,0.0574 -0.9558,2.39654 -2.5,5.19811 l -2.8077,5.09377 2.25,1.5282 c 4.4778,3.04135 2.173,7.31423 -8.7455,16.21335 -6.5159,5.31073 -10.0045,7.25245 -10.0045,5.56831 z m -52,-3.4144 c 0,-0.50435 3.7125,-3.83276 8.25,-7.39647 4.5375,-3.56372 9.8008,-8.10107 11.6961,-10.08301 3.1914,-3.33711 6.0539,-4.67154 6.0539,-2.82222 0,1.35305 -11.2294,11.79265 -17.86,16.60385 -6.3568,4.61247 -8.14,5.42258 -8.14,3.69785 z m 42,-7.0482 c 0,-2.83357 18.254,-19.0348 21.4466,-19.0348 2.8084,0 1.6361,1.69763 -4.1966,6.07704 -3.1625,2.37452 -7.9364,6.47859 -10.6087,9.12014 -4.7458,4.69123 -6.6413,5.78655 -6.6413,3.83762 z m -139.7698,-2.2848 c 0.7939,-2.50005 39.6515,-27.75 42.705,-27.75 2.5762,0 0.2861,1.94741 -9.996,8.5 -6.0413,3.85 -15.5865,10.00337 -21.2117,13.67417 -10.6129,6.92565 -12.1649,7.67832 -11.4973,5.57583 z m 67.4364,-8.41667 c -1.3522,-1.3522 -0.559,-2.30976 4.0834,-4.92958 14.6049,-8.24197 19.6214,-11.47323 28.0909,-18.09393 8.5436,-6.67861 12.1591,-8.61777 12.1591,-6.52158 0,0.77484 -3.0883,3.49612 -14,12.33637 -6.46,5.23362 -15.721,10.96957 -22.1837,13.73979 -2.5278,1.08355 -4.8971,2.45732 -5.2652,3.05284 -0.7603,1.23015 -1.9052,1.39532 -2.8845,0.41609 z m -8.1666,-12.87746 c -6.7624,-6.14502 -5.4847,-7.47412 1.6399,-1.70587 5.2775,4.27277 7.6206,7.27714 5.6185,7.20407 -0.6921,-0.0253 -3.9584,-2.49945 -7.2584,-5.4982 z m -10.5,-6.84485 c 0,-0.21393 3.4402,-2.0227 7.6448,-4.01949 4.2047,-1.99678 10.6172,-5.60431 14.25,-8.01672 10.7696,-7.1516 24.0225,-14.51757 24.5588,-13.64977 0.6752,1.09239 -1.7295,3.03057 -9.4536,7.61962 -3.575,2.12398 -9.8686,6.11468 -13.9857,8.86822 -8.5803,5.73851 -23.0143,11.50737 -23.0143,9.19814 z m -27,-2.54952 c 0,-0.51617 2.5202,-2.42867 5.6005,-4.25 3.0803,-1.82132 8.0205,-5.674 10.9782,-8.5615 5.0118,-4.89271 7.4213,-6.34264 7.4213,-4.46584 0,1.72465 -10.8698,11.26837 -16.6683,14.63475 -6.6083,3.83657 -7.3317,4.09731 -7.3317,2.64259 z m 14.5,-1.0615 c -0.3399,-0.55 0.083,-1 0.941,-1 0.8574,0 1.559,0.45 1.559,1 0,0.55 -0.4235,1 -0.941,1 -0.5175,0 -1.2191,-0.45 -1.559,-1 z m 19.05,-11.87219 c 4.8816,-4.48181 24.5198,-21.12781 24.9256,-21.12781 1.5629,0 0.072,2.65368 -3.2256,5.7422 -6.8303,6.39669 -19.6729,16.2578 -21.1733,16.2578 -0.8997,0 -1.1055,-0.34081 -0.5267,-0.87219 z m -51.7414,-6.84114 c 2.0078,-1.39885 6.6187,-3.57317 21.0434,-9.92315 2.2885,-1.00743 3.2282,-1.10425 2.9619,-0.30516 -0.2146,0.64375 -5.6841,3.59397 -12.1544,6.55605 -11.6529,5.33464 -16.3069,6.77676 -11.8509,3.67226 z m 49.2093,-6.03667 c 0.01,-0.4125 2.1474,-2.22456 4.75,-4.0268 2.6027,-1.80224 8.5571,-5.94682 13.2321,-9.21016 8.2575,-5.76413 11,-7.02569 11,-5.06016 0,1.37844 -6.1373,6.09395 -16.9287,13.00703 -8.8163,5.64775 -12.0964,7.08737 -12.0534,5.29009 z"
       id="path2060" />
  </g>
</svg>
